<svg xmlns="http://www.w3.org/2000/svg" width="192" height="13" viewBox="0 0 192 13" fill="none">
    <path d="M0 12.7603V0.231405H3.26597V9.95041H7.05516V12.7603H0Z" fill="#02438B"/>
    <path d="M16.2792 12.7603L15.6547 10.9504H11.2157L10.5405 12.7603H7.02984L12.1609 0.231405H14.7348L19.8237 12.7603H16.2792ZM13.4774 4.13223H13.4268L12.1102 8.41322H14.7939L13.4774 4.13223Z" fill="#02438B"/>
    <path d="M29.0814 12.7603L24.212 5.1405L24.1698 5.15702L24.2627 12.7603H21.1317V0.231405H23.9504L28.8958 8.10744L28.9295 8.07438L28.7861 0.231405H31.917V12.7603H29.0814Z" fill="#02438B"/>
    <path d="M46.7194 12.7603L43.2255 7.34711H43.1918V12.7603H39.9258V0.231405H43.1918V5.86777H43.2255L46.8375 0.231405H50.2638L46.0273 6.47934L50.5339 12.7603H46.7194Z" fill="#02438B"/>
    <path d="M59.2515 12.7603V7.75207H55.0657V12.7603H51.7997V0.231405H55.0657V4.94215H59.2515V0.231405H62.5175V12.7603H59.2515Z" fill="#02438B"/>
    <path d="M74.6109 7.80165C74.6109 8.65565 74.5377 9.34711 74.3915 9.87603C74.1945 10.5537 73.8429 11.1433 73.3366 11.6446C72.4307 12.5482 71.238 13 69.7583 13C69.0382 13 68.3743 12.8981 67.7667 12.6942C67.0803 12.4628 66.5177 12.1185 66.0788 11.6612C65.5387 11.1047 65.1787 10.5096 64.9986 9.87603C64.9199 9.58953 64.8636 9.26722 64.8298 8.90909C64.8073 8.62259 64.7961 8.25344 64.7961 7.80165V0.231405H68.0621V7.80165C68.0621 8.13223 68.0789 8.41598 68.1127 8.65289C68.1577 8.95592 68.2337 9.21212 68.3406 9.42149C68.5994 9.93388 69.0607 10.1901 69.7246 10.1901C70.411 10.1901 70.8723 9.93939 71.1086 9.43802C71.2043 9.23416 71.2718 8.98072 71.3111 8.67769C71.3337 8.4573 71.3449 8.16529 71.3449 7.80165V0.231405H74.6109V7.80165Z" fill="#02438B"/>
    <path d="M76.8979 12.7603V0.231405H84.0037V3.04132H80.0288V4.99174H83.8771V7.80165H80.0288V9.95041H84.0037V12.7603H76.8979Z" fill="#02438B"/>
    <path d="M100.992 4.46281C100.992 5.07438 100.879 5.66942 100.654 6.24793C100.407 6.87603 100.069 7.37741 99.6415 7.75207C99.1295 8.18733 98.5472 8.48485 97.8946 8.64463C97.3939 8.77135 96.7328 8.83471 95.9114 8.83471H94.4936V12.7603H91.3627V0.231405H95.5485C95.9536 0.231405 96.294 0.239669 96.5696 0.256198C96.9522 0.278237 97.301 0.316804 97.6161 0.371901C98.3925 0.504132 99.017 0.763085 99.4896 1.14876C100.491 1.98072 100.992 3.0854 100.992 4.46281ZM97.8608 4.52066C97.8608 3.93113 97.6358 3.52066 97.1857 3.28926C96.8594 3.12397 96.3643 3.04132 95.7004 3.04132H94.4936V6.02479H95.8186C96.4487 6.02479 96.9241 5.93113 97.2448 5.7438C97.6555 5.50689 97.8608 5.09917 97.8608 4.52066Z" fill="#02438B"/>
    <path d="M109.802 12.7603V7.75207H105.616V12.7603H102.35V0.231405H105.616V4.94215H109.802V0.231405H113.068V12.7603H109.802Z" fill="#02438B"/>
    <path d="M123.626 12.7603L123.001 10.9504H118.562L117.887 12.7603H114.376L119.507 0.231405H122.081L127.17 12.7603H123.626ZM120.824 4.13223H120.773L119.457 8.41322H122.14L120.824 4.13223Z" fill="#02438B"/>
    <path d="M134.597 12.7603L131.643 8.71901H131.609V12.7603H128.478V0.231405H132.521C132.948 0.231405 133.291 0.239669 133.55 0.256198C133.933 0.272727 134.276 0.30854 134.58 0.363636C135.345 0.490358 135.972 0.746557 136.462 1.13223C137.514 1.95868 138.04 3.09917 138.04 4.55372C138.04 5.55096 137.761 6.40771 137.204 7.12397C136.625 7.8843 135.843 8.3416 134.858 8.49587L138.327 12.7603H134.597ZM134.909 4.73554C134.909 4.15702 134.698 3.72176 134.276 3.42975C133.91 3.1708 133.418 3.04132 132.799 3.04132H131.609V6.52893H132.765C134.194 6.52893 134.909 5.93113 134.909 4.73554Z" fill="#02438B"/>
    <path d="M150.26 12.7603L150.361 3.38017L150.327 3.34711L147.601 12.7603H145.441L142.707 3.34711L142.673 3.38017L142.774 12.7603H139.77V0.231405H143.973L146.513 8.47934H146.547L149.053 0.231405H153.264V12.7603H150.26Z" fill="#02438B"/>
    <path d="M163.83 12.7603L163.205 10.9504H158.766L158.091 12.7603H154.581L159.712 0.231405H162.286L167.374 12.7603H163.83ZM161.028 4.13223H160.978L159.661 8.41322H162.345L161.028 4.13223Z" fill="#02438B"/>
    <path d="M181.063 8.07438C180.691 9.54545 179.907 10.7355 178.708 11.6446C177.521 12.5482 176.151 13 174.598 13C172.731 13 171.141 12.3719 169.83 11.1157C168.514 9.85399 167.855 8.30854 167.855 6.47934C167.855 4.65565 168.508 3.1157 169.813 1.8595C171.113 0.619835 172.697 0 174.565 0C176.995 0 178.871 0.980716 180.194 2.94215C180.655 3.61983 180.945 4.30303 181.063 4.99174H177.636C177.068 3.53719 176.039 2.80992 174.548 2.80992C173.541 2.80992 172.711 3.17631 172.058 3.90909C171.434 4.61433 171.121 5.46556 171.121 6.46281C171.121 7.47107 171.434 8.33333 172.058 9.04959C172.716 9.80992 173.552 10.1901 174.565 10.1901C175.96 10.1901 176.984 9.48485 177.636 8.07438H181.063Z" fill="#02438B"/>
    <path d="M188.219 8.20661V12.7603H184.953V8.20661L181.13 0.231405H184.675L186.574 5.26446L188.489 0.231405H192L188.219 8.20661Z" fill="#02438B"/>
</svg>