<svg xmlns="http://www.w3.org/2000/svg" width="181" height="12" viewBox="0 0 181 12" fill="none">
    <path d="M6.87756 9.16031C6.85213 9.26209 6.79278 9.34758 6.69952 9.41679C6.61049 9.486 6.51723 9.52061 6.41973 9.52061H5.61217C5.40446 9.52061 5.2794 9.45343 5.23701 9.31908L2.83977 1.97863C2.8313 1.9542 2.8207 1.94198 2.80798 1.94198C2.7995 1.94198 2.79314 1.9542 2.7889 1.97863L1.16743 9.28244C1.15471 9.34758 1.1208 9.40458 1.06569 9.45343C1.01058 9.49822 0.949115 9.52061 0.881288 9.52061H0.207264C0.0504156 9.52061 -0.0174108 9.46972 0.00378495 9.36794L1.94955 0.580153C1.97075 0.482443 2.02586 0.398982 2.11488 0.329771C2.2039 0.26056 2.3014 0.225954 2.40738 0.225954H3.12592C3.29972 0.225954 3.41418 0.244275 3.46929 0.280916C3.5244 0.313486 3.56891 0.378626 3.60282 0.476336L5.98734 7.78015L6.00006 7.81679C6.00854 7.81679 6.01701 7.80458 6.02549 7.78015L7.64061 0.464122C7.65756 0.398982 7.6936 0.34402 7.7487 0.299237C7.80381 0.250382 7.86528 0.225954 7.93311 0.225954H8.61985C8.69191 0.225954 8.74279 0.248346 8.77246 0.29313C8.80637 0.337913 8.81485 0.394911 8.79789 0.464122L6.87756 9.16031Z" fill="#4A4A4A"/>
    <path d="M14.5907 6.55878C14.383 7.49517 13.9697 8.23817 13.3507 8.78779C12.7318 9.33333 11.9539 9.60611 11.0171 9.60611C10.0845 9.60611 9.42953 9.33333 9.05224 8.78779C8.67496 8.23817 8.59018 7.49517 8.79789 6.55878L9.00773 5.60611C9.21545 4.66565 9.62877 3.92265 10.2477 3.3771C10.8666 2.82748 11.6424 2.55267 12.575 2.55267C13.5118 2.55267 14.1689 2.82748 14.5462 3.3771C14.9235 3.92265 15.0082 4.66565 14.8005 5.60611L14.5907 6.55878ZM13.4461 6.55878L13.656 5.60611C13.7535 5.17048 13.7725 4.79796 13.7132 4.48855C13.6581 4.17506 13.5182 3.93486 13.2935 3.76794C13.0731 3.60102 12.7636 3.51756 12.3651 3.51756C11.7759 3.51756 11.2969 3.70076 10.9281 4.06718C10.5593 4.42952 10.3007 4.94249 10.1523 5.60611L9.94246 6.55878C9.63301 7.95115 10.0612 8.64733 11.2269 8.64733C11.8162 8.64733 12.2952 8.46616 12.664 8.10382C13.037 7.74148 13.2977 7.22646 13.4461 6.55878Z" fill="#4A4A4A"/>
    <path d="M19.1308 9.3313C19.1054 9.45343 19.0121 9.52468 18.851 9.54504C18.55 9.58575 18.2618 9.60611 17.9862 9.60611C17.3504 9.60611 16.9222 9.49211 16.7018 9.26412C16.4813 9.03206 16.4453 8.58829 16.5937 7.93282L17.5602 3.56641L16.3203 3.43206C16.1592 3.41985 16.0935 3.34453 16.1231 3.20611L16.1994 2.86412C16.2334 2.71756 16.333 2.64427 16.4983 2.64427H17.7637L18.0371 1.41679C18.0668 1.27837 18.16 1.19491 18.3169 1.16641L19.0227 1.0687H19.0609C19.1202 1.0687 19.1626 1.08906 19.188 1.12977C19.2177 1.16641 19.2241 1.21527 19.2071 1.27634L18.9083 2.64427H20.3135C20.3856 2.64427 20.4407 2.6687 20.4789 2.71756C20.5213 2.76641 20.534 2.82545 20.517 2.89466L20.4216 3.31603C20.4089 3.38524 20.3686 3.44427 20.3008 3.49313C20.2372 3.54198 20.1736 3.56641 20.1101 3.56641H18.7048L17.7383 7.93282C17.6619 8.26667 17.6619 8.48244 17.7383 8.58015C17.8146 8.67379 17.9884 8.72061 18.2597 8.72061H18.9909C19.1732 8.72061 19.2516 8.77964 19.2262 8.89771L19.1308 9.3313Z" fill="#4A4A4A"/>
    <path d="M26.3861 1.30076C26.3692 1.36997 26.331 1.42697 26.2717 1.47176C26.2165 1.51654 26.1508 1.53893 26.0745 1.53893H25.4132C25.3496 1.53893 25.2945 1.51654 25.2479 1.47176C25.2013 1.42697 25.1864 1.36997 25.2034 1.30076L25.4259 0.29313C25.4387 0.22799 25.4747 0.170992 25.534 0.122137C25.5976 0.0692112 25.6676 0.0427481 25.7439 0.0427481H26.4052C26.4815 0.0427481 26.5387 0.0671756 26.5769 0.116031C26.615 0.160814 26.6256 0.219847 26.6087 0.29313L26.3861 1.30076ZM24.364 10.3206C24.2284 10.9394 23.9995 11.371 23.6773 11.6153C23.3551 11.8595 22.9185 11.9817 22.3674 11.9817C22.1342 11.9817 21.9053 11.9654 21.6807 11.9328C21.528 11.9125 21.4645 11.8453 21.4899 11.7313L21.5916 11.2733C21.6171 11.1552 21.7209 11.0962 21.9032 11.0962H22.4373C22.6875 11.0962 22.8613 11.0453 22.9588 10.9435C23.0605 10.8458 23.1474 10.6382 23.2195 10.3206L24.8664 2.89466C24.8791 2.82952 24.9109 2.77252 24.9618 2.72366C25.0169 2.67074 25.0805 2.64427 25.1525 2.64427H25.8265C25.9028 2.64427 25.9558 2.66667 25.9855 2.71145C26.0194 2.75623 26.0279 2.8173 26.0109 2.89466L24.364 10.3206Z" fill="#4A4A4A"/>
    <path d="M26.6659 6.99237L27.5752 2.89466C27.5879 2.82545 27.6239 2.76641 27.6833 2.71756C27.7426 2.6687 27.8105 2.64427 27.8868 2.64427H28.5099C28.582 2.64427 28.6371 2.6687 28.6752 2.71756C28.7176 2.76641 28.7325 2.82545 28.7198 2.89466L27.8105 6.99237C27.6748 7.60712 27.696 8.04071 27.8741 8.29313C28.0563 8.54555 28.4145 8.67176 28.9487 8.67176C29.1479 8.67176 29.4213 8.64936 29.7689 8.60458C30.1166 8.5598 30.4197 8.50687 30.6782 8.4458L31.9118 2.89466C31.9246 2.82952 31.9606 2.77252 32.0199 2.72366C32.0793 2.67074 32.1471 2.64427 32.2234 2.64427H32.8593C32.9314 2.64427 32.9843 2.6687 33.0183 2.71756C33.0564 2.76641 33.0691 2.82545 33.0564 2.89466L31.7211 8.92214C31.6872 9.07684 31.5854 9.17659 31.4159 9.22137C30.3179 9.47786 29.3917 9.60611 28.6371 9.60611C27.997 9.60611 27.5095 9.50433 27.1746 9.30076C26.8439 9.0972 26.6447 8.80611 26.5769 8.42748C26.509 8.04478 26.5387 7.56641 26.6659 6.99237Z" fill="#4A4A4A"/>
    <path d="M35.2184 8.67176C36.1637 8.67176 36.7063 8.3542 36.8462 7.71908C36.8886 7.52366 36.8568 7.35674 36.7508 7.21832C36.6448 7.0799 36.4244 6.91705 36.0895 6.72977L34.9195 6.08244C34.5337 5.8626 34.2603 5.60611 34.0992 5.31298C33.9381 5.01985 33.9021 4.66768 33.9911 4.25649C34.0886 3.82494 34.2815 3.48499 34.5698 3.23664C34.858 2.98422 35.1972 2.80712 35.5872 2.70534C35.9772 2.60356 36.399 2.55267 36.8526 2.55267C37.2044 2.55267 37.5478 2.58931 37.8827 2.6626C38.2176 2.73588 38.4571 2.8173 38.6012 2.90687C38.6606 2.94351 38.7008 2.97405 38.722 2.99847C38.7432 3.01883 38.7475 3.06158 38.7347 3.12672L38.6203 3.63969C38.6033 3.71298 38.5631 3.76794 38.4995 3.80458C38.4401 3.83715 38.3681 3.83715 38.2833 3.80458C38.0628 3.71501 37.7979 3.64173 37.4884 3.58473C37.1832 3.52366 36.9034 3.49313 36.6491 3.49313C36.2421 3.49313 35.9051 3.54198 35.638 3.63969C35.3752 3.7374 35.2099 3.93893 35.1421 4.24427C35.0954 4.45598 35.1251 4.63715 35.2311 4.78779C35.3371 4.93435 35.5321 5.08702 35.8161 5.2458L36.967 5.88092C37.2892 6.06005 37.5329 6.24122 37.6983 6.42443C37.8678 6.60763 37.9738 6.79898 38.0162 6.99847C38.0586 7.19796 38.0522 7.42188 37.9971 7.67023C37.9039 8.09771 37.7152 8.45802 37.4312 8.75115C37.1472 9.0402 36.7953 9.25598 36.3757 9.39847C35.9602 9.5369 35.5045 9.60611 35.0085 9.60611C34.6312 9.60611 34.2709 9.56539 33.9276 9.48397C33.5842 9.39847 33.3235 9.30687 33.1454 9.20916C33.0352 9.14809 32.9907 9.07277 33.0119 8.98321L33.1264 8.47023C33.1391 8.39695 33.1772 8.34198 33.2408 8.30534C33.3044 8.2687 33.3765 8.2687 33.457 8.30534C34.0547 8.54962 34.6418 8.67176 35.2184 8.67176Z" fill="#4A4A4A"/>
    <path d="M42.7852 9.3313C42.7598 9.45343 42.6665 9.52468 42.5055 9.54504C42.2045 9.58575 41.9162 9.60611 41.6407 9.60611C41.0048 9.60611 40.5767 9.49211 40.3562 9.26412C40.1358 9.03206 40.0998 8.58829 40.2481 7.93282L41.2146 3.56641L39.9747 3.43206C39.8136 3.41985 39.7479 3.34453 39.7776 3.20611L39.8539 2.86412C39.8878 2.71756 39.9874 2.64427 40.1527 2.64427H41.4181L41.6915 1.41679C41.7212 1.27837 41.8145 1.19491 41.9713 1.16641L42.6771 1.0687H42.7153C42.7747 1.0687 42.817 1.08906 42.8425 1.12977C42.8722 1.16641 42.8785 1.21527 42.8615 1.27634L42.5627 2.64427H43.968C44.04 2.64427 44.0951 2.6687 44.1333 2.71756C44.1757 2.76641 44.1884 2.82545 44.1714 2.89466L44.0761 3.31603C44.0633 3.38524 44.0231 3.44427 43.9552 3.49313C43.8917 3.54198 43.8281 3.56641 43.7645 3.56641H42.3592L41.3927 7.93282C41.3164 8.26667 41.3164 8.48244 41.3927 8.58015C41.469 8.67379 41.6428 8.72061 41.9141 8.72061H42.6454C42.8276 8.72061 42.9061 8.77964 42.8806 8.89771L42.7852 9.3313Z" fill="#4A4A4A"/>
    <path d="M52.0753 9.04428C52.0414 9.19898 51.9566 9.29059 51.821 9.31908C51.4607 9.41272 51.1025 9.48397 50.7464 9.53282C50.3903 9.58168 49.9939 9.60611 49.5573 9.60611C48.5441 9.60611 47.851 9.44326 47.478 9.11756C47.1092 8.78779 47.0053 8.2626 47.1664 7.54198L47.1855 7.43206C47.2915 6.96387 47.4801 6.58117 47.7514 6.28397C48.0227 5.98677 48.4042 5.76692 48.896 5.62443C49.3877 5.47786 50.013 5.40458 50.7718 5.40458H51.7383L51.8464 4.90382C51.9651 4.3827 51.9418 4.02239 51.7765 3.8229C51.6154 3.61934 51.2784 3.51756 50.7654 3.51756C50.3712 3.51756 50.0257 3.54402 49.729 3.59695C49.4365 3.6458 49.0952 3.72316 48.7052 3.82901C48.6077 3.85751 48.5335 3.85547 48.4827 3.8229C48.436 3.79033 48.4191 3.73944 48.4318 3.67023L48.5399 3.18168C48.5653 3.0799 48.6437 3.00458 48.7752 2.95573C48.9956 2.87023 49.3114 2.7827 49.7226 2.69313C50.1338 2.59949 50.5514 2.55267 50.9753 2.55267C52.6667 2.55267 53.3386 3.33639 52.991 4.90382L52.0753 9.04428ZM51.0261 8.63511L51.5603 6.20458H50.5938C50.1826 6.20458 49.8498 6.22697 49.5954 6.27176C49.3411 6.31247 49.1291 6.38168 48.9596 6.47939C48.7942 6.5771 48.6628 6.70127 48.5653 6.85191C48.4721 6.99847 48.4 7.18779 48.3491 7.41985L48.3237 7.52977C48.2601 7.8229 48.2559 8.05903 48.311 8.23817C48.3661 8.41323 48.5081 8.54148 48.737 8.6229C48.9702 8.70433 49.3072 8.74504 49.748 8.74504C49.9219 8.74504 50.0893 8.74097 50.2504 8.73282C50.4157 8.72061 50.5641 8.70636 50.6955 8.69008C50.8312 8.67379 50.9414 8.65547 51.0261 8.63511Z" fill="#4A4A4A"/>
    <path d="M62.7898 6.54657C62.5693 7.53588 62.1624 8.29313 61.5689 8.81832C60.9754 9.34351 60.2103 9.60611 59.2734 9.60611C58.7944 9.60611 58.2963 9.56132 57.7791 9.47176L57.2831 11.7313C57.2662 11.7964 57.228 11.8514 57.1687 11.8962C57.1093 11.945 57.0457 11.9695 56.9779 11.9695H56.3166C56.2445 11.9695 56.1915 11.9471 56.1576 11.9023C56.128 11.8575 56.1216 11.8005 56.1386 11.7313L58.0398 3.12672C58.061 3.04122 58.0949 2.97812 58.1416 2.9374C58.1882 2.89669 58.2666 2.86412 58.3768 2.83969C58.6057 2.78677 58.8665 2.73791 59.159 2.69313C59.4515 2.64835 59.7355 2.61374 60.011 2.58931C60.2908 2.56489 60.5642 2.55267 60.8313 2.55267C61.4629 2.55267 61.9631 2.67888 62.332 2.9313C62.7008 3.17964 62.936 3.53588 63.0378 4C63.1437 4.46412 63.1289 5.0117 62.9933 5.64275L62.7898 6.54657ZM61.6452 6.54657L61.8487 5.64275C61.9462 5.18677 61.9759 4.8 61.9377 4.48244C61.9038 4.16489 61.7809 3.91858 61.5689 3.74351C61.3569 3.56845 61.0433 3.48092 60.6278 3.48092C60.0979 3.48092 59.5829 3.52163 59.0826 3.60305L57.9826 8.55573C58.4235 8.64122 58.9216 8.68397 59.4769 8.68397C60.0873 8.68397 60.5621 8.50483 60.9012 8.14656C61.2404 7.78829 61.4884 7.25496 61.6452 6.54657Z" fill="#4A4A4A"/>
    <path d="M68.9196 9.27023C68.9026 9.33944 68.8602 9.39847 68.7924 9.44733C68.7288 9.49618 68.6652 9.52061 68.6016 9.52061H67.9785C67.9064 9.52061 67.8492 9.49618 67.8068 9.44733C67.7687 9.39847 67.7581 9.33944 67.775 9.27023L68.6843 5.1542C68.8157 4.55165 68.7882 4.12824 68.6016 3.88397C68.4194 3.63969 68.1014 3.51756 67.6478 3.51756C67.4105 3.51756 67.1095 3.54809 66.7449 3.60916C66.3803 3.66616 66.0582 3.75165 65.7784 3.86565L64.5829 9.27023C64.566 9.33537 64.5257 9.3944 64.4621 9.44733C64.3985 9.49618 64.3328 9.52061 64.265 9.52061H63.6291C63.5655 9.52061 63.5126 9.49618 63.4702 9.44733C63.432 9.39847 63.4214 9.33944 63.4384 9.27023L65.4096 0.366412C65.4223 0.29313 65.4562 0.234097 65.5113 0.189313C65.5707 0.140458 65.6364 0.116031 65.7084 0.116031H66.357C66.4333 0.116031 66.4884 0.140458 66.5223 0.189313C66.5563 0.234097 66.5669 0.29313 66.5541 0.366412L65.9819 2.94351C66.3125 2.81323 66.6622 2.71552 67.031 2.65038C67.4041 2.58524 67.7453 2.55267 68.0548 2.55267C68.5253 2.55267 68.9175 2.64427 69.2312 2.82748C69.5449 3.00662 69.7547 3.29364 69.8607 3.68855C69.9667 4.07939 69.9561 4.56794 69.8289 5.1542L68.9196 9.27023Z" fill="#4A4A4A"/>
    <path d="M75.4373 9.04428C75.4034 9.19898 75.3186 9.29059 75.1829 9.31908C74.8226 9.41272 74.4644 9.48397 74.1083 9.53282C73.7522 9.58168 73.3559 9.60611 72.9192 9.60611C71.9061 9.60611 71.213 9.44326 70.8399 9.11756C70.4711 8.78779 70.3673 8.2626 70.5283 7.54198L70.5474 7.43206C70.6534 6.96387 70.842 6.58117 71.1133 6.28397C71.3847 5.98677 71.7662 5.76692 72.2579 5.62443C72.7496 5.47786 73.3749 5.40458 74.1337 5.40458H75.1003L75.2084 4.90382C75.3271 4.3827 75.3037 4.02239 75.1384 3.8229C74.9773 3.61934 74.6403 3.51756 74.1274 3.51756C73.7331 3.51756 73.3876 3.54402 73.0909 3.59695C72.7984 3.6458 72.4572 3.72316 72.0672 3.82901C71.9697 3.85751 71.8955 3.85547 71.8446 3.8229C71.798 3.79033 71.781 3.73944 71.7937 3.67023L71.9018 3.18168C71.9273 3.0799 72.0057 3.00458 72.1371 2.95573C72.3575 2.87023 72.6734 2.7827 73.0845 2.69313C73.4957 2.59949 73.9133 2.55267 74.3372 2.55267C76.0286 2.55267 76.7005 3.33639 76.3529 4.90382L75.4373 9.04428ZM74.3881 8.63511L74.9222 6.20458H73.9557C73.5445 6.20458 73.2117 6.22697 72.9574 6.27176C72.703 6.31247 72.4911 6.38168 72.3215 6.47939C72.1562 6.5771 72.0248 6.70127 71.9273 6.85191C71.834 6.99847 71.7619 7.18779 71.7111 7.41985L71.6856 7.52977C71.622 7.8229 71.6178 8.05903 71.6729 8.23817C71.728 8.41323 71.87 8.54148 72.0989 8.6229C72.3321 8.70433 72.6691 8.74504 73.11 8.74504C73.2838 8.74504 73.4512 8.74097 73.6123 8.73282C73.7776 8.72061 73.926 8.70636 74.0574 8.69008C74.1931 8.67379 74.3033 8.65547 74.3881 8.63511Z" fill="#4A4A4A"/>
    <path d="M81.0139 2.54046C81.3572 2.54046 81.6476 2.56081 81.885 2.60153C81.974 2.61781 82.027 2.64631 82.044 2.68702C82.0652 2.72366 82.0673 2.7827 82.0503 2.86412L81.9486 3.31603C81.9274 3.40153 81.8956 3.46056 81.8532 3.49313C81.8151 3.52163 81.7472 3.53384 81.6497 3.52977C81.3572 3.51349 81.0732 3.50534 80.7977 3.50534C80.2551 3.50534 79.7252 3.56845 79.208 3.69466L77.9744 9.27023C77.9574 9.33537 77.9172 9.3944 77.8536 9.44733C77.79 9.49618 77.7243 9.52061 77.6565 9.52061H77.0206C76.957 9.52061 76.904 9.49618 76.8616 9.44733C76.8235 9.39847 76.8129 9.33944 76.8298 9.27023L78.1652 3.21832C78.1991 3.06361 78.3008 2.96387 78.4704 2.91908C78.996 2.78473 79.4602 2.68906 79.8629 2.63206C80.2699 2.57099 80.6535 2.54046 81.0139 2.54046Z" fill="#4A4A4A"/>
    <path d="M81.8024 9.27023L83.1313 3.24275C83.1695 3.07583 83.2712 2.97608 83.4365 2.94351C84.03 2.80509 84.5387 2.70534 84.9626 2.64427C85.3908 2.58321 85.7808 2.55267 86.1326 2.55267C86.4336 2.55267 86.7113 2.59542 86.9656 2.68092C87.2242 2.76234 87.4107 2.88651 87.5252 3.05344C88.3561 2.71145 89.1149 2.54046 89.8016 2.54046C90.2171 2.54046 90.5647 2.61374 90.8445 2.76031C91.1242 2.90687 91.3171 3.15114 91.4231 3.49313C91.5291 3.83511 91.5206 4.28499 91.3977 4.84275L90.4184 9.27023C90.4015 9.34351 90.3612 9.40458 90.2976 9.45343C90.2383 9.49822 90.1725 9.52061 90.1005 9.52061H89.4773C89.4137 9.52061 89.3586 9.49618 89.312 9.44733C89.2696 9.39847 89.2569 9.33944 89.2738 9.27023L90.2531 4.84275C90.3591 4.35013 90.3294 4.00407 90.1641 3.80458C90.003 3.60509 89.7359 3.50534 89.3629 3.50534C88.9474 3.50534 88.4154 3.6173 87.7668 3.84122C87.7795 4.13028 87.7477 4.45598 87.6714 4.81832L86.6858 9.27023C86.6689 9.33537 86.6329 9.3944 86.5778 9.44733C86.5226 9.49618 86.4612 9.52061 86.3933 9.52061H85.7002C85.6367 9.52061 85.5879 9.49618 85.554 9.44733C85.5243 9.39847 85.518 9.33944 85.5349 9.27023L86.5205 4.81832C86.5968 4.46819 86.6201 4.19746 86.5905 4.00611C86.5608 3.81069 86.4824 3.67837 86.3552 3.60916C86.228 3.53995 86.0457 3.50534 85.8083 3.50534C85.3039 3.50534 84.7592 3.57659 84.1742 3.71908L82.9469 9.27023C82.93 9.34351 82.8939 9.40458 82.8388 9.45343C82.7879 9.49822 82.7265 9.52061 82.6544 9.52061H81.9613C81.902 9.52061 81.8553 9.49618 81.8214 9.44733C81.7918 9.39847 81.7854 9.33944 81.8024 9.27023Z" fill="#4A4A4A"/>
    <path d="M96.9425 9.04428C96.9085 9.19898 96.8238 9.29059 96.6881 9.31908C96.3278 9.41272 95.9696 9.48397 95.6135 9.53282C95.2574 9.58168 94.861 9.60611 94.4244 9.60611C93.4113 9.60611 92.7182 9.44326 92.3451 9.11756C91.9763 8.78779 91.8724 8.2626 92.0335 7.54198L92.0526 7.43206C92.1586 6.96387 92.3472 6.58117 92.6185 6.28397C92.8898 5.98677 93.2714 5.76692 93.7631 5.62443C94.2548 5.47786 94.8801 5.40458 95.6389 5.40458H96.6054L96.7135 4.90382C96.8322 4.3827 96.8089 4.02239 96.6436 3.8229C96.4825 3.61934 96.1455 3.51756 95.6326 3.51756C95.2383 3.51756 94.8928 3.54402 94.5961 3.59695C94.3036 3.6458 93.9623 3.72316 93.5723 3.82901C93.4748 3.85751 93.4007 3.85547 93.3498 3.8229C93.3032 3.79033 93.2862 3.73944 93.2989 3.67023L93.407 3.18168C93.4324 3.0799 93.5109 3.00458 93.6423 2.95573C93.8627 2.87023 94.1785 2.7827 94.5897 2.69313C95.0009 2.59949 95.4185 2.55267 95.8424 2.55267C97.5338 2.55267 98.2057 3.33639 97.8581 4.90382L96.9425 9.04428ZM95.8933 8.63511L96.4274 6.20458H95.4609C95.0497 6.20458 94.7169 6.22697 94.4626 6.27176C94.2082 6.31247 93.9963 6.38168 93.8267 6.47939C93.6614 6.5771 93.53 6.70127 93.4324 6.85191C93.3392 6.99847 93.2671 7.18779 93.2162 7.41985L93.1908 7.52977C93.1272 7.8229 93.123 8.05903 93.1781 8.23817C93.2332 8.41323 93.3752 8.54148 93.6041 8.6229C93.8373 8.70433 94.1743 8.74504 94.6152 8.74504C94.789 8.74504 94.9564 8.74097 95.1175 8.73282C95.2828 8.72061 95.4312 8.70636 95.5626 8.69008C95.6983 8.67379 95.8085 8.65547 95.8933 8.63511Z" fill="#4A4A4A"/>
    <path d="M100.834 9.60611C100.393 9.60611 100.012 9.5369 99.6894 9.39847C99.3673 9.25598 99.1171 9.05242 98.9391 8.78779C98.7653 8.52316 98.6614 8.20763 98.6275 7.84122C98.5936 7.47481 98.6296 7.0514 98.7356 6.57099L98.9518 5.59389C99.0917 4.96285 99.3143 4.42137 99.6195 3.96947C99.9247 3.51349 100.313 3.16336 100.783 2.91908C101.258 2.67481 101.796 2.55267 102.398 2.55267C102.754 2.55267 103.079 2.59542 103.371 2.68092C103.668 2.76234 103.884 2.8458 104.02 2.9313C104.088 2.97201 104.128 3.00865 104.141 3.04122C104.157 3.06972 104.16 3.12061 104.147 3.19389L104.045 3.63969C104.007 3.81476 103.895 3.86972 103.708 3.80458C103.187 3.61323 102.678 3.51756 102.182 3.51756C101.097 3.51756 100.402 4.20967 100.096 5.59389L99.8802 6.57099C99.7276 7.25903 99.7509 7.77812 99.9501 8.12824C100.154 8.4743 100.52 8.64733 101.05 8.64733C101.546 8.64733 102.097 8.55165 102.703 8.36031C102.915 8.29109 103.002 8.34402 102.964 8.51908L102.869 8.97099C102.852 9.04427 102.826 9.0972 102.792 9.12977C102.759 9.16234 102.701 9.19695 102.621 9.23359C102.439 9.31908 102.184 9.40254 101.858 9.48397C101.531 9.56539 101.19 9.60611 100.834 9.60611Z" fill="#4A4A4A"/>
    <path d="M111.046 2.85191C111.038 2.89669 111.027 2.92723 111.014 2.94351L107.269 10.1435C107.027 10.6198 106.788 10.9883 106.55 11.2489C106.313 11.5094 106.033 11.6987 105.711 11.8168C105.389 11.9389 104.98 12 104.484 12C104.102 12 103.746 11.9613 103.416 11.884C103.242 11.8433 103.166 11.7761 103.187 11.6824L103.288 11.2244C103.318 11.0901 103.416 11.0229 103.581 11.0229H103.619C104.179 11.0718 104.558 11.0962 104.757 11.0962C105.143 11.0962 105.444 11.0229 105.66 10.8763C105.876 10.7338 106.084 10.4529 106.283 10.0336L106.525 9.52061H106.347C106.114 9.52061 105.934 9.46768 105.807 9.36183C105.684 9.25598 105.605 9.02188 105.571 8.65954L105.107 2.94351C105.103 2.92723 105.105 2.89669 105.113 2.85191C105.143 2.71349 105.234 2.64427 105.387 2.64427H106.105C106.156 2.64427 106.199 2.66463 106.233 2.70534C106.266 2.74606 106.286 2.79084 106.29 2.83969L106.627 8.2687C106.631 8.45191 106.69 8.54351 106.805 8.54351H107.015L109.87 2.82748C109.895 2.77455 109.933 2.73181 109.984 2.69924C110.039 2.6626 110.097 2.64427 110.156 2.64427H110.887C111.023 2.64427 111.076 2.71349 111.046 2.85191Z" fill="#4A4A4A"/>
    <path d="M111.44 8.04275C111.436 8.0631 111.421 8.09771 111.396 8.14656L109.895 10.5099C109.844 10.5913 109.798 10.6504 109.755 10.687C109.713 10.7277 109.66 10.7481 109.596 10.7481H108.954C108.852 10.7481 108.812 10.6972 108.833 10.5954C108.842 10.5547 108.852 10.5262 108.865 10.5099L110.137 8.14656C110.222 7.98779 110.325 7.9084 110.448 7.9084H111.307C111.417 7.9084 111.462 7.95318 111.44 8.04275Z" fill="#4A4A4A"/>
    <path d="M121.621 6.51603C121.404 7.48499 121 8.24224 120.406 8.78779C119.817 9.33333 119.045 9.60611 118.092 9.60611C117.261 9.60611 116.481 9.5369 115.752 9.39847C115.637 9.37405 115.567 9.34351 115.542 9.30687C115.521 9.26616 115.521 9.19898 115.542 9.10534L117.475 0.354198C117.492 0.29313 117.526 0.238168 117.577 0.189313C117.627 0.140458 117.691 0.116031 117.767 0.116031H118.429C118.496 0.116031 118.549 0.140458 118.588 0.189313C118.626 0.234097 118.636 0.289059 118.619 0.354198L118.104 2.68092C118.337 2.63613 118.588 2.60356 118.855 2.58321C119.126 2.56285 119.393 2.55267 119.656 2.55267C120.135 2.55267 120.535 2.62188 120.858 2.76031C121.184 2.89466 121.436 3.09008 121.614 3.34657C121.797 3.60305 121.903 3.92061 121.932 4.29924C121.966 4.67786 121.928 5.11756 121.818 5.61832L121.621 6.51603ZM120.476 6.51603L120.673 5.61832C120.83 4.90992 120.817 4.3827 120.635 4.03664C120.453 3.69059 120.054 3.51756 119.44 3.51756C118.757 3.51756 118.244 3.54606 117.901 3.60305L116.807 8.56794C117.43 8.62086 117.93 8.64733 118.308 8.64733C118.927 8.64733 119.404 8.47226 119.738 8.12214C120.073 7.76794 120.319 7.23257 120.476 6.51603Z" fill="#4A4A4A"/>
    <path d="M122.759 6.99237L123.668 2.89466C123.681 2.82545 123.717 2.76641 123.776 2.71756C123.836 2.6687 123.903 2.64427 123.98 2.64427H124.603C124.675 2.64427 124.73 2.6687 124.768 2.71756C124.811 2.76641 124.825 2.82545 124.813 2.89466L123.903 6.99237C123.768 7.60712 123.789 8.04071 123.967 8.29313C124.149 8.54555 124.508 8.67176 125.042 8.67176C125.241 8.67176 125.514 8.64936 125.862 8.60458C126.21 8.5598 126.513 8.50687 126.771 8.4458L128.005 2.89466C128.018 2.82952 128.054 2.77252 128.113 2.72366C128.172 2.67074 128.24 2.64427 128.316 2.64427H128.952C129.024 2.64427 129.077 2.6687 129.111 2.71756C129.149 2.76641 129.162 2.82545 129.149 2.89466L127.814 8.92214C127.78 9.07684 127.678 9.17659 127.509 9.22137C126.411 9.47786 125.485 9.60611 124.73 9.60611C124.09 9.60611 123.602 9.50433 123.268 9.30076C122.937 9.0972 122.738 8.80611 122.67 8.42748C122.602 8.04478 122.632 7.56641 122.759 6.99237Z" fill="#4A4A4A"/>
    <path d="M133.066 9.3313C133.041 9.45343 132.948 9.52468 132.787 9.54504C132.486 9.58575 132.197 9.60611 131.922 9.60611C131.286 9.60611 130.858 9.49211 130.637 9.26412C130.417 9.03206 130.381 8.58829 130.529 7.93282L131.496 3.56641L130.256 3.43206C130.095 3.41985 130.029 3.34453 130.059 3.20611L130.135 2.86412C130.169 2.71756 130.269 2.64427 130.434 2.64427H131.699L131.973 1.41679C132.002 1.27837 132.096 1.19491 132.252 1.16641L132.958 1.0687H132.996C133.056 1.0687 133.098 1.08906 133.124 1.12977C133.153 1.16641 133.16 1.21527 133.143 1.27634L132.844 2.64427H134.249C134.321 2.64427 134.376 2.6687 134.414 2.71756C134.457 2.76641 134.469 2.82545 134.453 2.89466L134.357 3.31603C134.344 3.38524 134.304 3.44427 134.236 3.49313C134.173 3.54198 134.109 3.56641 134.046 3.56641H132.64L131.674 7.93282C131.597 8.26667 131.597 8.48244 131.674 8.58015C131.75 8.67379 131.924 8.72061 132.195 8.72061H132.926C133.109 8.72061 133.187 8.77964 133.162 8.89771L133.066 9.3313Z" fill="#4A4A4A"/>
    <path d="M142.356 9.04428C142.323 9.19898 142.238 9.29059 142.102 9.31908C141.742 9.41272 141.384 9.48397 141.027 9.53282C140.671 9.58168 140.275 9.60611 139.838 9.60611C138.825 9.60611 138.132 9.44326 137.759 9.11756C137.39 8.78779 137.286 8.2626 137.447 7.54198L137.467 7.43206C137.573 6.96387 137.761 6.58117 138.033 6.28397C138.304 5.98677 138.685 5.76692 139.177 5.62443C139.669 5.47786 140.294 5.40458 141.053 5.40458H142.019L142.128 4.90382C142.246 4.3827 142.223 4.02239 142.058 3.8229C141.896 3.61934 141.559 3.51756 141.047 3.51756C140.652 3.51756 140.307 3.54402 140.01 3.59695C139.718 3.6458 139.376 3.72316 138.986 3.82901C138.889 3.85751 138.815 3.85547 138.764 3.8229C138.717 3.79033 138.7 3.73944 138.713 3.67023L138.821 3.18168C138.846 3.0799 138.925 3.00458 139.056 2.95573C139.277 2.87023 139.593 2.7827 140.004 2.69313C140.415 2.59949 140.832 2.55267 141.256 2.55267C142.948 2.55267 143.62 3.33639 143.272 4.90382L142.356 9.04428ZM141.307 8.63511L141.841 6.20458H140.875C140.464 6.20458 140.131 6.22697 139.877 6.27176C139.622 6.31247 139.41 6.38168 139.241 6.47939C139.075 6.5771 138.944 6.70127 138.846 6.85191C138.753 6.99847 138.681 7.18779 138.63 7.41985L138.605 7.52977C138.541 7.8229 138.537 8.05903 138.592 8.23817C138.647 8.41323 138.789 8.54148 139.018 8.6229C139.251 8.70433 139.588 8.74504 140.029 8.74504C140.203 8.74504 140.37 8.74097 140.531 8.73282C140.697 8.72061 140.845 8.70636 140.977 8.69008C141.112 8.67379 141.222 8.65547 141.307 8.63511Z" fill="#4A4A4A"/>
    <path d="M152.721 0.690076C152.691 0.816285 152.598 0.879389 152.441 0.879389H151.818C151.505 0.879389 151.28 0.938422 151.144 1.05649C151.013 1.17455 150.909 1.40254 150.833 1.74046L150.635 2.64427H152.003C152.07 2.64427 152.123 2.66667 152.162 2.71145C152.2 2.75216 152.212 2.80305 152.2 2.86412L152.092 3.35267C152.062 3.49517 151.964 3.56641 151.799 3.56641H150.432L149.167 9.27023C149.154 9.33537 149.116 9.3944 149.052 9.44733C148.993 9.49618 148.929 9.52061 148.861 9.52061H148.219C148.147 9.52061 148.092 9.49618 148.054 9.44733C148.02 9.3944 148.009 9.33537 148.022 9.27023L149.287 3.56641L148.047 3.43206C147.886 3.41985 147.821 3.34453 147.85 3.20611L147.927 2.86412C147.939 2.80305 147.975 2.75216 148.035 2.71145C148.094 2.66667 148.158 2.64427 148.226 2.64427H149.491L149.688 1.74046C149.786 1.30891 149.932 0.964886 150.127 0.708397C150.326 0.451908 150.57 0.270738 150.858 0.164885C151.151 0.0549618 151.496 0 151.895 0C152.136 0 152.374 0.0264631 152.607 0.0793893C152.764 0.124173 152.831 0.191349 152.81 0.280916L152.721 0.690076Z" fill="#4A4A4A"/>
    <path d="M156.88 9.04428C156.846 9.19898 156.761 9.29059 156.625 9.31908C156.265 9.41272 155.907 9.48397 155.551 9.53282C155.195 9.58168 154.798 9.60611 154.362 9.60611C153.349 9.60611 152.655 9.44326 152.282 9.11756C151.914 8.78779 151.81 8.2626 151.971 7.54198L151.99 7.43206C152.096 6.96387 152.285 6.58117 152.556 6.28397C152.827 5.98677 153.209 5.76692 153.7 5.62443C154.192 5.47786 154.817 5.40458 155.576 5.40458H156.543L156.651 4.90382C156.77 4.3827 156.746 4.02239 156.581 3.8229C156.42 3.61934 156.083 3.51756 155.57 3.51756C155.176 3.51756 154.83 3.54402 154.533 3.59695C154.241 3.6458 153.9 3.72316 153.51 3.82901C153.412 3.85751 153.338 3.85547 153.287 3.8229C153.24 3.79033 153.223 3.73944 153.236 3.67023L153.344 3.18168C153.37 3.0799 153.448 3.00458 153.58 2.95573C153.8 2.87023 154.116 2.7827 154.527 2.69313C154.938 2.59949 155.356 2.55267 155.78 2.55267C157.471 2.55267 158.143 3.33639 157.795 4.90382L156.88 9.04428ZM155.831 8.63511L156.365 6.20458H155.398C154.987 6.20458 154.654 6.22697 154.4 6.27176C154.145 6.31247 153.934 6.38168 153.764 6.47939C153.599 6.5771 153.467 6.70127 153.37 6.85191C153.276 6.99847 153.204 7.18779 153.154 7.41985L153.128 7.52977C153.065 7.8229 153.06 8.05903 153.115 8.23817C153.171 8.41323 153.313 8.54148 153.541 8.6229C153.775 8.70433 154.112 8.74504 154.552 8.74504C154.726 8.74504 154.894 8.74097 155.055 8.73282C155.22 8.72061 155.368 8.70636 155.5 8.69008C155.636 8.67379 155.746 8.65547 155.831 8.63511Z" fill="#4A4A4A"/>
    <path d="M158.272 9.27023L159.601 3.24275C159.639 3.07583 159.741 2.97608 159.906 2.94351C160.5 2.80509 161.009 2.70534 161.433 2.64427C161.861 2.58321 162.251 2.55267 162.603 2.55267C162.904 2.55267 163.181 2.59542 163.436 2.68092C163.694 2.76234 163.881 2.88651 163.995 3.05344C164.826 2.71145 165.585 2.54046 166.272 2.54046C166.687 2.54046 167.035 2.61374 167.314 2.76031C167.594 2.90687 167.787 3.15114 167.893 3.49313C167.999 3.83511 167.991 4.28499 167.868 4.84275L166.888 9.27023C166.871 9.34351 166.831 9.40458 166.768 9.45343C166.708 9.49822 166.643 9.52061 166.57 9.52061H165.947C165.884 9.52061 165.829 9.49618 165.782 9.44733C165.74 9.39847 165.727 9.33944 165.744 9.27023L166.723 4.84275C166.829 4.35013 166.799 4.00407 166.634 3.80458C166.473 3.60509 166.206 3.50534 165.833 3.50534C165.417 3.50534 164.885 3.6173 164.237 3.84122C164.249 4.13028 164.218 4.45598 164.141 4.81832L163.156 9.27023C163.139 9.33537 163.103 9.3944 163.048 9.44733C162.993 9.49618 162.931 9.52061 162.863 9.52061H162.17C162.107 9.52061 162.058 9.49618 162.024 9.44733C161.994 9.39847 161.988 9.33944 162.005 9.27023L162.99 4.81832C163.067 4.46819 163.09 4.19746 163.06 4.00611C163.031 3.81069 162.952 3.67837 162.825 3.60916C162.698 3.53995 162.516 3.50534 162.278 3.50534C161.774 3.50534 161.229 3.57659 160.644 3.71908L159.417 9.27023C159.4 9.34351 159.364 9.40458 159.309 9.45343C159.258 9.49822 159.196 9.52061 159.124 9.52061H158.431C158.372 9.52061 158.325 9.49618 158.291 9.44733C158.262 9.39847 158.255 9.33944 158.272 9.27023Z" fill="#4A4A4A"/>
    <path d="M171.378 1.28855C171.365 1.36183 171.327 1.4229 171.263 1.47176C171.204 1.51654 171.138 1.53893 171.066 1.53893H170.405C170.333 1.53893 170.275 1.5145 170.233 1.46565C170.195 1.41679 170.182 1.35776 170.195 1.28855L170.417 0.29313C170.434 0.223919 170.473 0.164885 170.532 0.116031C170.591 0.0671756 170.659 0.0427481 170.735 0.0427481H171.397C171.477 0.0427481 171.534 0.0651399 171.568 0.109924C171.607 0.154707 171.617 0.215776 171.6 0.29313L171.378 1.28855ZM169.591 9.27023C169.574 9.34351 169.534 9.40458 169.47 9.45343C169.411 9.49822 169.345 9.52061 169.273 9.52061H168.65C168.586 9.52061 168.531 9.49618 168.484 9.44733C168.442 9.39847 168.429 9.33944 168.446 9.27023L169.858 2.89466C169.871 2.82545 169.907 2.76641 169.966 2.71756C170.03 2.6687 170.097 2.64427 170.169 2.64427H170.793C170.873 2.64427 170.933 2.66667 170.971 2.71145C171.009 2.75623 171.019 2.8173 171.002 2.89466L169.591 9.27023Z" fill="#4A4A4A"/>
    <path d="M172.401 9.27023C172.384 9.34351 172.348 9.40458 172.293 9.45343C172.242 9.49822 172.181 9.52061 172.109 9.52061H171.435C171.367 9.52061 171.316 9.49822 171.282 9.45343C171.248 9.40458 171.24 9.34351 171.257 9.27023L173.228 0.354198C173.241 0.29313 173.273 0.238168 173.323 0.189313C173.374 0.140458 173.438 0.116031 173.514 0.116031H174.188C174.26 0.116031 174.313 0.138422 174.347 0.183206C174.381 0.22799 174.39 0.284987 174.373 0.354198L172.401 9.27023Z" fill="#4A4A4A"/>
    <path d="M180.992 2.85191C180.984 2.89669 180.973 2.92723 180.96 2.94351L177.215 10.1435C176.973 10.6198 176.734 10.9883 176.496 11.2489C176.259 11.5094 175.979 11.6987 175.657 11.8168C175.335 11.9389 174.926 12 174.43 12C174.048 12 173.692 11.9613 173.362 11.884C173.188 11.8433 173.111 11.7761 173.133 11.6824L173.234 11.2244C173.264 11.0901 173.362 11.0229 173.527 11.0229H173.565C174.125 11.0718 174.504 11.0962 174.703 11.0962C175.089 11.0962 175.39 11.0229 175.606 10.8763C175.822 10.7338 176.03 10.4529 176.229 10.0336L176.471 9.52061H176.293C176.06 9.52061 175.88 9.46768 175.752 9.36183C175.629 9.25598 175.551 9.02188 175.517 8.65954L175.053 2.94351C175.049 2.92723 175.051 2.89669 175.059 2.85191C175.089 2.71349 175.18 2.64427 175.333 2.64427H176.051C176.102 2.64427 176.145 2.66463 176.178 2.70534C176.212 2.74606 176.231 2.79084 176.236 2.83969L176.573 8.2687C176.577 8.45191 176.636 8.54351 176.751 8.54351H176.961L179.816 2.82748C179.841 2.77455 179.879 2.73181 179.93 2.69924C179.985 2.6626 180.042 2.64427 180.102 2.64427H180.833C180.969 2.64427 181.022 2.71349 180.992 2.85191Z" fill="#4A4A4A"/>
</svg>