<svg width="70" height="69" viewBox="0 0 70 69" fill="none"
    xmlns="http://www.w3.org/2000/svg">
    <path d="M42.929 17.9021C40.7348 17.9021 40.0273 16.1713 39.9478 15.3059V9.75949C39.8683 8.34338 38.7553 5.51117 34.9394 5.51117C31.1235 5.51117 30.0105 8.50073 29.931 9.99551V19.6722C30.2172 22.8821 32.9917 23.7632 34.3432 23.8026H59.1466C67.7324 24.0738 70.0776 31.0798 69.9981 34.3054C69.7119 42.33 63.201 44.9655 59.9813 45.2802H50.0838C46.7449 45.469 45.6716 48.3837 45.7909 49.8825V59.6773C45.0754 66.5571 38.5566 68.9213 35.7741 69H34.7009C26.6875 68.3391 24.2072 62.4268 24.0879 59.6773V49.4105C24.0879 46.2007 21.1465 45.2409 19.6758 45.1622H9.42052C6.3201 45.1622 0 41.8815 0 34.4234C0 26.9652 5.96236 23.9558 9.42052 23.8026H15.0251C16.0586 23.8419 18.1256 24.4634 18.1256 26.6348C18.1256 28.8061 16.0586 29.4277 15.0251 29.467H10.613C9.02303 29.467 5.84311 30.4583 5.84311 34.4234C5.84311 38.3885 9.02303 39.4584 10.613 39.4978H20.5105C27.4745 40.1586 29.8118 45.6695 29.931 48.5844V58.8512C30.0503 60.4206 31.839 63.4536 35.1779 63.4536C38.5168 63.4536 40.067 60.5386 40.067 58.8512V48.5844C40.6633 41.5392 46.9436 39.6551 49.8453 39.4978H59.6236C61.293 39.4978 64.155 37.7984 64.155 34.3054C64.155 30.8123 61.293 29.467 59.5043 29.467H33.6277C25.7574 28.5582 24.1674 22.7011 24.2072 20.1443V9.99551C25.1611 0.932416 32.793 -0.389284 36.4896 0.082752C43.8352 1.12123 45.7512 7.12395 45.7909 9.99551V15.3059C45.7512 16.1713 45.1231 17.9021 42.929 17.9021Z" fill="url(#paint0_linear_10_21)"/>
    <defs>
        <linearGradient id="paint0_linear_10_21" x1="13.4749" y1="15.8132" x2="53.8371" y2="56.0862" gradientUnits="userSpaceOnUse">
            <stop stop-color="#E68651"/>
            <stop offset="0.46875" stop-color="#D21155"/>
            <stop offset="1" stop-color="#02438B"/>
        </linearGradient>
    </defs>
</svg>
