<svg width="9" height="9" viewBox="0 0 9 9" fill="none"
    xmlns="http://www.w3.org/2000/svg">
    <path d="M0.417894 0.143855L0.138679 0.438662C0.0514799 0.531444 0.00344132 0.654883 0.00344132 0.786811C0.00344132 0.918666 0.0514799 1.04225 0.138679 1.13503L3.30193 4.49799L0.135169 7.86482C0.0479698 7.95745 1.57235e-09 8.08104 0 8.2129C-1.57235e-09 8.34475 0.0479698 8.46841 0.135169 8.56112L0.412663 8.856C0.593118 9.048 0.887061 9.048 1.06752 8.856L4.85148 4.84738C4.93861 4.75475 5 4.63131 5 4.49828V4.49674C5 4.36482 4.93854 4.24138 4.85148 4.14874L1.07777 0.143855C0.99064 0.0510738 0.871026 0.000146344 0.747006 0C0.622918 -1.47974e-09 0.504955 0.0510738 0.417894 0.143855Z" fill="#50B1F9"/>
    <path d="M4.41789 0.143855L4.13868 0.438662C4.05148 0.531444 4.00344 0.654883 4.00344 0.786811C4.00344 0.918666 4.05148 1.04225 4.13868 1.13503L7.30193 4.49799L4.13517 7.86482C4.04797 7.95745 4 8.08104 4 8.2129C4 8.34475 4.04797 8.46841 4.13517 8.56112L4.41266 8.856C4.59312 9.048 4.88706 9.048 5.06752 8.856L8.85148 4.84738C8.93861 4.75475 9 4.63131 9 4.49828V4.49674C9 4.36482 8.93854 4.24138 8.85148 4.14874L5.07777 0.143855C4.99064 0.0510738 4.87103 0.000146344 4.74701 0C4.62292 -1.47974e-09 4.50496 0.0510738 4.41789 0.143855Z" fill="#50B1F9"/>
</svg>
