<svg xmlns="http://www.w3.org/2000/svg" width="62" height="71" viewBox="0 0 62 71" fill="none">
    <path d="M45.935 8.35498V50.1299L28.185 53.7035L10.4364 58.9591L7.45923 36.8867L10.4364 8.35498H45.935Z" fill="#E62E6B"/>
    <path d="M45.9351 8.35498V50.1299L28.1851 53.7034V8.35498H45.9351Z" fill="#B32453"/>
    <path d="M30.2832 41.7749H38.6208V45.9351H30.2832V41.7749Z" fill="#FF6666"/>
    <path d="M10.4359 8.35498C4.68212 8.35498 0.000976562 13.0361 0.000976562 18.79V60.5654L10.4359 58.9595V8.35498Z" fill="#604080"/>
    <path d="M45.9351 58.4849L44.3265 60.5649L45.9351 62.645V66.8399L44.5525 68.9199H10.4364C5.91339 68.9248 2.07841 65.2227 2.08008 60.5649C2.08008 55.9513 5.82006 52.21 10.4364 52.21H44.5525L45.9351 54.29V58.4849Z" fill="#FFF5F5"/>
    <path d="M45.9351 58.4849L44.3266 60.5649L45.9351 62.645V66.8398L44.5526 68.9199H28.1851V52.21H44.5526L45.9351 54.29V58.4849Z" fill="#ECE6F2"/>
    <path d="M4.16016 60.5649C4.16016 64.0248 6.97658 66.8398 10.4364 66.8398H45.9351V71H10.4364C4.68295 71 0 66.3184 0 60.5649C0 54.8114 4.68295 50.1299 10.4364 50.1299H45.9351V54.29H10.4364C6.97658 54.29 4.16016 57.1051 4.16016 60.5649Z" fill="#ECE6F2"/>
    <path d="M8.35645 58.4849H45.9351V62.645H8.35645V58.4849Z" fill="#ECE6F2"/>
    <path d="M17.75 16.8015H38.6201V28.0242H17.75V16.8015Z" fill="#FF8080"/>
    <path d="M28.1851 50.1299H45.9351V54.29H28.1851V50.1299Z" fill="#CFCFE6"/>
    <path d="M28.1851 58.4849H45.9351V62.645H28.1851V58.4849Z" fill="#CFCFE6"/>
    <path d="M28.1851 66.8398H45.9351V71H28.1851V66.8398Z" fill="#CFCFE6"/>
    <path d="M28.1851 16.8015H38.6201V28.0242H28.1851V16.8015Z" fill="#FF6666"/>
    <path d="M61.4698 15.5354C61.4698 24.115 54.5168 31.068 45.9358 31.0694H45.9344C37.3548 31.0694 30.4004 24.115 30.4004 15.5354C30.4004 6.95578 37.3546 0 45.9343 0H45.9357C54.5167 0.00138672 61.4698 6.95578 61.4698 15.5354Z" fill="#99DDFF"/>
    <path d="M61.4701 15.5354C61.4701 24.115 54.517 31.068 45.936 31.0694V0C54.5169 0.00138672 61.4701 6.95578 61.4701 15.5354Z" fill="#66B3FF"/>
    <path d="M43.8557 7.18872H48.0159V11.3489H43.8557V7.18872Z" fill="#FFF5F5"/>
    <path d="M43.8557 13.8713H48.0159V23.8807H43.8557V13.8713Z" fill="#FFF5F5"/>
    <path d="M45.9358 7.18872H48.0159V11.3489H45.9358V7.18872Z" fill="#ECE6F2"/>
    <path d="M45.9358 13.8713H48.0159V23.8807H45.9358V13.8713Z" fill="#ECE6F2"/>
</svg>