<svg width="31" height="31" viewBox="0 0 31 31" fill="none"
    xmlns="http://www.w3.org/2000/svg">
    <path fill-rule="evenodd" clip-rule="evenodd" d="M15.5 31C24.0604 31 31 24.0604 31 15.5C31 6.93959 24.0604 0 15.5 0C6.93959 0 0 6.93959 0 15.5C0 24.0604 6.93959 31 15.5 31ZM14.1369 17.2499L14.1541 17.2361C14.7102 17.9587 14.8599 18.792 15.0156 19.6589C15.0308 19.7437 15.0461 19.8288 15.0618 19.9142C15.0915 19.848 15.1216 19.7816 15.1516 19.715C15.4539 19.0462 15.7648 18.3584 15.8588 17.6276C15.9554 16.8653 15.8451 16.0892 15.5792 15.3715C17.5105 17.0579 18.4072 19.8974 17.6174 22.3595C17.4246 22.9604 17.1797 23.5476 16.89 24.1111C18.0971 23.5548 19.2524 22.8196 20.125 21.8032C21.0248 20.7562 21.6356 19.4754 21.8942 18.119C22.4115 15.4062 21.5493 12.6007 19.9763 10.379C19.7767 10.0975 19.5521 9.82995 19.328 9.5652C19.4076 10.5645 19.318 11.6118 18.6968 12.4359C18.214 9.80901 16.5965 7.52513 14.2686 6.2C14.2479 8.71703 13.4202 11.1654 11.9062 13.1845C11.7127 12.4054 11.3854 11.6667 10.9405 10.9971C10.8195 11.677 10.6884 12.3638 10.4746 13.0231C10.3099 13.528 10.0777 14.0054 9.84578 14.4823C9.77184 14.6344 9.69792 14.7864 9.62622 14.9392C9.00199 16.2781 8.78092 17.7172 9.10201 19.1732C9.34687 20.282 9.88798 21.2881 10.654 22.1294C11.5299 23.0906 12.6956 23.685 13.9165 24.097C13.3543 23.0871 13.0302 21.865 13.313 20.7181C13.3922 20.4036 13.5102 20.1009 13.6281 19.7984C13.7304 19.5361 13.8325 19.274 13.9093 19.0046C14.0782 18.4346 14.1369 17.8405 14.1369 17.2499Z" fill="url(#paint0_linear_27_754)"/>
    <defs>
        <linearGradient id="paint0_linear_27_754" x1="5.96747" y1="7.10448" x2="24.0988" y2="24.9373" gradientUnits="userSpaceOnUse">
            <stop stop-color="#E68651"/>
            <stop offset="1" stop-color="#D21155"/>
        </linearGradient>
    </defs>
</svg>
