<svg width="20" height="21" viewBox="0 0 20 21" fill="none"
    xmlns="http://www.w3.org/2000/svg">
    <path d="M19.9989 9.42104C19.997 9.22624 19.9217 9.04015 19.7894 8.9034L17.7868 7.02329L10.4753 0.18653C10.3473 0.066409 10.1815 0 10.0096 0C9.8378 0 9.672 0.066409 9.54392 0.18653L2.25104 7.02329L0.2299 8.9034C0.0984073 9.03064 0.0170169 9.20481 0.00170623 9.39174C-0.0100716 9.56935 0.0394166 9.74547 0.141147 9.888C0.242877 10.0305 0.390071 10.13 0.55589 10.1682C0.55589 10.1926 1.95299 10.1682 1.99956 10.1682V20.2671C1.99956 20.4614 2.07316 20.6477 2.20417 20.785C2.33517 20.9224 2.51285 20.9996 2.69812 20.9996H7.42498C7.51866 21.0029 7.61201 20.9863 7.69946 20.951C7.78692 20.9157 7.8667 20.8622 7.93406 20.7939C8.00141 20.7255 8.05496 20.6437 8.09151 20.5532C8.12806 20.4627 8.14687 20.3654 8.14682 20.2671V14.1921H11.919V20.2671C11.919 20.4614 11.9926 20.6477 12.1236 20.785C12.2546 20.9224 12.4323 20.9996 12.6176 20.9996H17.3025C17.4878 20.9996 17.6655 20.9224 17.7965 20.785C17.9275 20.6477 18.0011 20.4614 18.0011 20.2671V10.1829C18.0663 10.1829 19.4401 10.1829 19.4447 10.1829C19.6085 10.1459 19.7543 10.0489 19.8559 9.9092C19.9575 9.76954 20.0082 9.59643 19.9989 9.42104Z" fill="white"/>
</svg>
