<svg width="70" height="70" viewBox="0 0 70 70" fill="none"
    xmlns="http://www.w3.org/2000/svg">
    <g clip-path="url(#clip0_87_389)">
        <path d="M62.8191 43.0789L60.7151 47.263C58.1249 52.4143 53.0012 55.8093 47.2478 56.1867L44.3257 56.3783C43.2559 56.4485 42.2481 56.9051 41.49 57.6632L39.2127 59.9405L25.4709 46.6754L27.0744 42.8586C27.4726 41.9108 27.6863 40.8956 27.7042 39.8676L27.9337 26.6501L28.0823 18.7582C28.1155 16.9974 29.5523 15.5875 31.3133 15.5875C33.0981 15.5875 34.545 17.0344 34.545 18.8191V30.9746L62.8191 43.0789Z" fill="#FFCEBF"/>
        <path d="M58.5326 41.2438L56.5525 45.1817C53.9622 50.333 48.8385 53.728 43.0851 54.1054L40.163 54.2971C39.0932 54.3672 38.0855 54.8238 37.3274 55.5819L36.0356 56.8737L39.2126 59.9405L41.4899 57.6632C42.248 56.9051 43.2558 56.4485 44.3256 56.3783L47.2477 56.1866C53.0011 55.8093 58.1249 52.4143 60.715 47.263L62.819 43.0789L58.5326 41.2438Z" fill="#FFB09E"/>
        <path d="M59.2426 48.1467H40.095C37.0298 48.1467 34.5449 45.6619 34.5449 42.5966V5.5501C34.5449 2.48486 37.0298 0 40.095 0H59.2428C62.308 0 64.7929 2.48486 64.7929 5.5501V42.5966C64.7927 45.6619 62.3078 48.1467 59.2426 48.1467Z" fill="#3D6D93"/>
        <path d="M59.2426 0H55.0801C58.1453 0 60.6302 2.48486 60.6302 5.5501V42.5966C60.6302 45.6619 58.1453 48.1467 55.0801 48.1467H59.2426C62.3078 48.1467 64.7927 45.6619 64.7927 42.5966V5.5501C64.7927 2.48486 62.3078 0 59.2426 0V0Z" fill="#335E80"/>
        <path d="M53.6167 5.27256C53.6167 6.30847 52.7768 7.14834 51.7409 7.14834H47.5968C46.5609 7.14834 45.7211 6.30847 45.7211 5.27256C45.7211 4.65951 45.2241 4.16254 44.611 4.16254H40.7888C39.6394 4.16254 38.7075 5.09441 38.7075 6.24381V41.9029C38.7075 43.0523 39.6394 43.9842 40.7888 43.9842H58.549C59.6984 43.9842 60.6302 43.0523 60.6302 41.9029V6.24381C60.6302 5.09441 59.6984 4.16254 58.549 4.16254H54.7267C54.1137 4.16254 53.6167 4.65951 53.6167 5.27256Z" fill="#F9F7F8"/>
        <path d="M49.6687 4.61482C50.2434 4.61482 50.7093 4.14895 50.7093 3.57426C50.7093 2.99957 50.2434 2.53369 49.6687 2.53369C49.0941 2.53369 48.6282 2.99957 48.6282 3.57426C48.6282 4.14895 49.0941 4.61482 49.6687 4.61482Z" fill="#335E80"/>
        <path d="M67.0986 22.2361H64.7927V15.741H67.0986C68.8922 15.741 70.0001 17.195 70.0001 18.9886C70.0001 20.7821 68.8922 22.2361 67.0986 22.2361Z" fill="#FFCEBF"/>
        <path d="M67.0986 28.7312H64.7927V22.2361H67.0986C68.8922 22.2361 70.0001 23.6901 70.0001 25.4837C70.0001 27.2773 68.8922 28.7312 67.0986 28.7312Z" fill="#FFB09E"/>
        <path d="M67.0986 35.2264H64.7927V28.7313H67.0986C68.8922 28.7313 70.0001 30.1853 70.0001 31.9789C70.0001 33.7724 68.8922 35.2264 67.0986 35.2264Z" fill="#FFCEBF"/>
        <path d="M67.0986 41.7215H64.7927V35.2264H67.0986C68.8922 35.2264 70.0001 36.6804 70.0001 38.474C70.0001 40.2675 68.8922 41.7215 67.0986 41.7215Z" fill="#FFB09E"/>
        <path d="M33.2207 68.9593L39.9554 62.2247C40.7682 61.4119 40.7682 60.0941 39.9554 59.2813L25.7417 45.0677C24.9289 44.2549 23.6111 44.2549 22.7983 45.0677L1.04057 66.9475L0.460879 67.4887C0.166934 67.7631 0 68.1471 0 68.5492C0 69.3505 0.649551 70 1.45086 70H30.4274C31.4532 70 32.4449 69.6306 33.2207 68.9593Z" fill="#F58A97"/>
        <path d="M39.9554 59.2814L38.2406 57.5667C38.146 57.7448 38.0241 57.9121 37.8741 58.0621L31.1395 64.7967C30.3636 65.468 29.3721 65.8375 28.3462 65.8375H2.14443L1.04057 66.9475L0.460879 67.4886C0.166934 67.763 0 68.147 0 68.5491C0 69.3504 0.649551 70 1.45086 70H30.4274C31.4534 70 32.4449 69.6306 33.2207 68.9593L39.9554 62.2247C40.7682 61.412 40.7682 60.0942 39.9554 59.2814Z" fill="#F07281"/>
    </g>
    <defs>
        <clipPath id="clip0_87_389">
            <rect width="70" height="70" fill="white"/>
        </clipPath>
    </defs>
</svg>
