<svg width="30" height="27" viewBox="0 0 30 27" fill="none"
    xmlns="http://www.w3.org/2000/svg">
    <path d="M9.54637 18.3087H9.54772C9.54885 18.3087 9.54998 18.3085 9.55111 18.3085H25.2894C25.6769 18.3085 26.0175 18.0512 26.124 17.6782L29.5962 5.51025C29.671 5.24792 29.6186 4.96591 29.4547 4.74817C29.2906 4.53043 29.034 4.40233 28.7616 4.40233H7.54441L6.92388 1.60638C6.8355 1.2087 6.4833 0.925781 6.0764 0.925781H0.868057C0.388591 0.925781 0 1.31486 0 1.79492C0 2.27498 0.388591 2.66405 0.868057 2.66405H5.38015C5.49001 3.15951 8.34962 16.044 8.51419 16.7853C7.59166 17.1868 6.94446 18.1077 6.94446 19.1776C6.94446 20.6153 8.11272 21.785 9.54863 21.785H25.2894C25.7689 21.785 26.1575 21.396 26.1575 20.9159C26.1575 20.4359 25.7689 20.0468 25.2894 20.0468H9.54863C9.07007 20.0468 8.68057 19.6568 8.68057 19.1776C8.68057 18.6992 9.06871 18.3099 9.54637 18.3087ZM27.6108 6.1406L24.6345 16.5702H10.2449L7.93006 6.1406H27.6108Z" fill="#656565"/>
    <path d="M8.68057 24.3924C8.68057 25.8301 9.84883 26.9999 11.2847 26.9999C12.7206 26.9999 13.8889 25.8301 13.8889 24.3924C13.8889 22.9548 12.7206 21.785 11.2847 21.785C9.84883 21.785 8.68057 22.9548 8.68057 24.3924ZM11.2847 23.5233C11.7633 23.5233 12.1528 23.9133 12.1528 24.3924C12.1528 24.8716 11.7633 25.2616 11.2847 25.2616C10.8062 25.2616 10.4167 24.8716 10.4167 24.3924C10.4167 23.9133 10.8062 23.5233 11.2847 23.5233Z" fill="#656565"/>
    <path d="M20.9491 24.3924C20.9491 25.8301 22.1174 26.9999 23.5533 26.9999C24.9892 26.9999 26.1574 25.8301 26.1574 24.3924C26.1574 22.9548 24.9892 21.785 23.5533 21.785C22.1174 21.785 20.9491 22.9548 20.9491 24.3924ZM23.5533 23.5233C24.0318 23.5233 24.4213 23.9133 24.4213 24.3924C24.4213 24.8716 24.0318 25.2616 23.5533 25.2616C23.0747 25.2616 22.6852 24.8716 22.6852 24.3924C22.6852 23.9133 23.0747 23.5233 23.5533 23.5233Z" fill="#656565"/>
</svg>
