<svg width="14" height="17" viewBox="0 0 14 17" fill="none"
    xmlns="http://www.w3.org/2000/svg">
    <path d="M13.7578 8.60662C13.5865 7.84339 12.9774 7.28039 12.2443 7.19659C10.5088 6.99786 8.75128 6.99692 7.00238 6.99786C5.25274 6.99692 3.49561 6.99786 1.75951 7.19659C1.02681 7.28058 0.418112 7.84358 0.246917 8.60662C0.00292641 9.69344 0 10.8798 0 11.9989C0 13.1179 2.18035e-08 14.3041 0.24399 15.3909C0.415186 16.154 1.02388 16.717 1.75695 16.801C3.49268 16.9999 5.24982 17.0006 6.99927 16.9999C8.7489 17.0008 10.5057 16.9999 12.242 16.801C12.9747 16.717 13.5837 16.154 13.7549 15.3909C13.9987 14.3041 14 13.1179 14 11.9989C13.9998 10.8796 14.0016 9.69344 13.7578 8.60662ZM3.99328 9.44897H2.98001V14.968H2.0388V9.44897H1.044V8.54494H3.99328V9.44897ZM6.5497 14.9682H5.70305V14.446C5.36669 14.8413 5.04735 15.034 4.73623 15.034C4.46352 15.034 4.27587 14.9207 4.19118 14.6783C4.14509 14.5336 4.11656 14.3045 4.11656 13.9667V10.1822H4.96248V13.7059C4.96248 13.9091 4.96248 14.0147 4.97016 14.0432C4.99046 14.1778 5.05466 14.246 5.16806 14.246C5.33779 14.246 5.51521 14.112 5.70286 13.8399V10.1822H6.54951L6.5497 14.9682ZM9.76382 13.5317C9.76382 13.9743 9.73474 14.2933 9.67822 14.4961C9.56519 14.8521 9.33894 15.034 9.0024 15.034C8.70135 15.034 8.4109 14.8626 8.12795 14.5045V14.9684H7.28203V8.54494H8.12795V10.6426C8.40121 10.2979 8.69129 10.1235 9.0024 10.1235C9.33894 10.1235 9.56537 10.3052 9.67822 10.6635C9.73511 10.856 9.76382 11.1725 9.76382 11.6256V13.5317ZM11.2647 12.7332V13.5816C11.2647 14.0246 11.4061 14.2458 11.6969 14.2458C11.9052 14.2458 12.0265 14.1298 12.0748 13.898C12.0826 13.851 12.0938 13.6583 12.0938 13.3105H12.9569V13.437C12.9569 13.7166 12.9465 13.9091 12.9388 13.9957C12.9105 14.1877 12.8439 14.3619 12.7413 14.5152C12.507 14.8628 12.1598 15.0342 11.7179 15.0342C11.2753 15.0342 10.9384 14.8709 10.6939 14.5441C10.5145 14.3045 10.4223 13.9273 10.4223 13.4187V11.7424C10.4223 11.2308 10.504 10.8566 10.6838 10.6147C10.9282 10.2872 11.2649 10.1241 11.6971 10.1241C12.1216 10.1241 12.4581 10.2872 12.6952 10.6147C12.8724 10.8566 12.9571 11.2308 12.9571 11.7424V12.7332H11.2647Z" fill="#333333"/>
    <path d="M11.6894 10.9044C11.4066 10.9044 11.2649 11.1258 11.2649 11.5682V12.0111H12.1108V11.5682C12.1106 11.1258 11.9692 10.9044 11.6894 10.9044Z" fill="#333333"/>
    <path d="M8.54972 10.9044C8.41035 10.9044 8.26915 10.9719 8.12777 11.1153V14.0323C8.26897 14.1774 8.41035 14.246 8.54972 14.246C8.79371 14.246 8.91772 14.0323 8.91772 13.6001V11.5574C8.91772 11.1258 8.79371 10.9044 8.54972 10.9044Z" fill="#333333"/>
    <path d="M9.02234 6.55672C9.33419 6.55672 9.65865 6.36249 9.99903 5.96279V6.49035H10.8541V1.65357H9.99903V5.35029C9.80955 5.62476 9.62994 5.7605 9.45893 5.7605C9.34443 5.7605 9.27712 5.69113 9.25847 5.55521C9.24804 5.52652 9.24804 5.41985 9.24804 5.21456V1.65357H8.39572V5.47815C8.39572 5.81974 8.42425 6.0509 8.47144 6.19732C8.5574 6.44236 8.74707 6.55672 9.02234 6.55672Z" fill="#333333"/>
    <path d="M3.06982 3.8617V6.49035H4.01798V3.8617L5.15855 0H4.19978L3.55286 2.54878L2.87978 0H1.88205C2.08197 0.601622 2.28992 1.20624 2.48984 1.80843C2.794 2.71358 2.98385 3.396 3.06982 3.8617Z" fill="#333333"/>
    <path d="M6.42935 6.55672C6.8577 6.55672 7.19058 6.39155 7.42671 6.06159C7.60614 5.81955 7.6921 5.43822 7.6921 4.92415V3.23046C7.6921 2.71339 7.60632 2.33543 7.42671 2.09115C7.19058 1.76025 6.85789 1.59508 6.42935 1.59508C6.00319 1.59508 5.67049 1.76025 5.43382 2.09115C5.25219 2.33543 5.16623 2.71339 5.16623 3.23046V4.92415C5.16623 5.43822 5.25219 5.81955 5.43382 6.06159C5.67031 6.39155 6.00319 6.55672 6.42935 6.55672ZM6.02129 3.05479C6.02129 2.60728 6.15372 2.38418 6.42935 2.38418C6.70498 2.38418 6.83704 2.60709 6.83704 3.05479V5.08932C6.83704 5.53683 6.70498 5.76068 6.42935 5.76068C6.15372 5.76068 6.02129 5.53683 6.02129 5.08932V3.05479Z" fill="#333333"/>
</svg>
